# xmcd
#
# Track frame offsets: 
#        150
#        3637
#        17230
#        39400
#        56253
#        79497
#        94798
#        110944
#        133000
#        148442
#        168993
#        188008
#        209936
#        227593
#
# Disc length: 3317 seconds
#
# Revision: 0
# Processed by: cddbd v1.5.2PL0 Copyright (c) Steve Scherf et al.
# Submitted via: ExactAudioCopyFreeDBPlugin 1.0
#
DISCID=cd0cf30e
DTITLE=热西.才让旦 - 香格里拉
DYEAR=1900
DGENRE=
TTITLE0=序
TTITLE1=三朵花
TTITLE2=唵嘛呢叭咪吽
TTITLE3=姑娘的耳环
TTITLE4=牧歌
TTITLE5=日喀则酒歌
TTITLE6=心愿
TTITLE7=时光
TTITLE8=远方的贵人
TTITLE9=布谷鸟
TTITLE10=喜马拉雅
TTITLE11=父母的恩情
TTITLE12=次仁措姆
TTITLE13=雪域之子
EXTD=
EXTT0=
EXTT1=
EXTT2=
EXTT3=
EXTT4=
EXTT5=
EXTT6=
EXTT7=
EXTT8=
EXTT9=
EXTT10=
EXTT11=
EXTT12=
EXTT13=
PLAYORDER=
